<svg width="54" height="56" viewBox="0 0 54 56" fill="none" xmlns="http://www.w3.org/2000/svg">
<path d="M53.8697 37.3941C53.8512 29.7435 53.8353 22.0929 53.8168 14.4423C50.6043 17.1768 46.0449 17.4222 41.8666 17.1768C41.3453 17.1471 40.8213 17.1094 40.3159 16.9691C38.7811 16.5458 37.6088 15.1839 37.069 13.6603C36.5292 12.1366 36.5398 10.4619 36.7435 8.85469C37.0373 6.53012 37.7173 4.25678 38.7414 2.15603C38.9981 1.63017 39.3289 1.13667 39.5803 0.608111C39.8555 0.0310123 38.6118 0.190119 38.318 0.184726C37.0214 0.155062 35.7248 0.128094 34.4308 0.103824C31.8375 0.0579796 29.2469 0.0283156 26.6536 0.0121353C24.0603 -0.00404509 21.467 -0.00404509 18.8764 0.0121353C17.2305 0.0229222 15.5845 0.0364058 13.9386 0.0579796C16.1773 3.4963 17.2437 7.71398 16.9129 11.8265C16.8203 12.9645 16.6139 14.1322 15.9894 15.0841C14.4175 17.4869 11.041 17.557 8.21486 17.3709C5.68509 17.2038 2.82984 16.8694 1.2924 14.8118C1.1892 14.6742 1.07806 14.5178 0.9087 14.4908C0.546171 14.4288 0.395337 14.9439 0.397983 15.316C0.421799 23.8404 0.442969 32.3647 0.466785 40.8891C3.04948 39.0445 6.1323 37.9308 9.27863 37.707C12.0995 37.5047 15.3622 38.2571 16.5239 41.1884C17.0214 42.4478 17.0664 43.7179 16.9897 45.0528C16.7727 48.804 15.6639 52.4958 13.7851 55.7265C22.4461 55.8155 31.1098 55.8181 39.7734 55.7292C37.9634 52.5929 36.9208 49.0035 36.7594 45.371C36.6933 43.8474 36.7965 42.2536 37.5427 40.9322C38.3657 39.4814 39.874 38.5537 41.4379 38.1438L41.4591 38.1384C43.0468 37.7285 44.7139 37.7905 46.3413 37.9685C48.7811 38.2355 51.34 38.8288 53.0944 40.5763C53.2294 40.7111 53.3961 40.8648 53.5813 40.8244C53.8248 40.7704 53.8777 40.4441 53.8777 40.1879L53.8724 37.3941H53.8697Z" fill="#0F57A2"/>
<path d="M16.4073 18.4936C17.4287 17.1991 18.6725 16.0827 20.1226 15.2278C26.2803 11.5899 34.7217 13.5019 39.0535 19.1758C40.9217 21.6218 42.0146 24.7041 42.1072 27.8026C42.2369 32.0797 40.3025 36.2461 37.2805 39.1559C36.3544 40.0458 35.3276 40.8278 34.2215 41.475C33.4303 41.9389 32.5994 42.3299 31.7394 42.64C31.181 42.8396 29.8818 43.4598 29.4425 42.7614C29.3261 42.5753 29.3208 42.3407 29.3208 42.1196C29.3208 39.5469 29.1726 36.9149 29.2043 34.326C29.2096 33.9296 29.1779 32.8752 29.6701 32.7107C30.7127 32.3628 31.787 32.3763 32.0014 30.9497C32.0463 30.6504 32.0331 30.3187 32.2236 30.0868C32.7 29.4962 33.8484 29.8117 34.4729 29.8441C35.4203 29.8926 38.1961 30.494 38.2729 29.1052C38.3152 28.2935 38.2914 27.4817 38.1961 26.6754C38.1829 26.5702 38.167 26.4597 38.1061 26.3734C37.7489 25.8799 36.3597 26.1954 35.841 26.2116C35.1027 26.2359 32.393 26.7186 32.0358 25.8691C31.9617 25.6965 31.9484 25.505 31.9087 25.3217C31.742 24.5666 31.1361 24.1 30.4375 23.9059C29.9241 23.7657 29.379 23.6928 29.4187 23.0537C29.4557 22.4658 30.1093 22.1476 30.6121 22.0694C31.2154 21.975 31.9379 21.9481 32.266 21.4222C32.393 21.2199 32.4353 20.9745 32.4618 20.7345C32.5306 20.1251 32.5306 19.5102 32.4565 18.9008C32.4353 18.7228 32.3983 18.5286 32.2633 18.4127C32.1443 18.3102 31.9775 18.2967 31.8241 18.2778C31.2181 18.2077 30.6095 18.0189 30.1305 17.6333C29.6515 17.2477 29.3128 16.6517 29.334 16.0288C29.3419 15.778 29.4028 15.5029 29.2758 15.2872C29.1276 15.031 28.7915 14.977 28.5004 14.9635C27.6986 14.9231 26.8942 14.9743 26.103 15.1173C26.0051 15.1334 25.9045 15.155 25.8304 15.2224C25.6849 15.3519 25.7061 15.5811 25.7299 15.7753C25.7881 16.2607 25.7696 16.7919 25.5896 17.2504C25.4097 17.7142 25.0233 18.1295 24.5391 18.2589C24.158 18.3614 23.6473 18.0998 23.2954 18.2805C22.782 18.5421 22.7317 19.2918 22.7344 19.8015C22.7344 20.117 22.7688 20.4325 22.8217 20.7426C22.8746 21.0528 22.9223 21.4707 23.1657 21.6892C23.3509 21.8564 23.6235 21.8753 23.8722 21.8672C24.4518 21.8456 25.1292 22.0074 25.4997 22.4982C26.0157 23.1778 25.4467 23.7872 24.8011 24.0488C24.4385 24.1971 24.0178 24.3185 23.7452 24.6178C23.4065 24.9873 23.5018 25.5158 23.2319 25.9176C22.9646 26.3168 22.4645 26.3437 22.0358 26.341C20.7841 26.3329 19.5298 26.2493 18.2782 26.1954C17.95 26.1819 17.5981 26.1711 17.315 26.3437C16.9021 26.5918 16.7698 27.1339 16.7354 27.622C16.6931 28.191 16.7301 28.7654 16.8466 29.3236C16.8836 29.5016 16.9313 29.6823 17.0424 29.8225C17.2382 30.0733 17.5822 30.1407 17.8971 30.165C19.3631 30.2782 20.8212 29.8441 22.2925 29.8656C22.5227 29.8683 22.7688 29.8899 22.954 30.0274C23.2292 30.2297 23.2689 30.583 23.3351 30.8958C23.5071 31.7183 24.0098 32.4248 24.8672 32.5812C25.407 32.6783 25.6902 32.7727 25.7087 33.393C25.7854 36.0007 25.8781 38.6084 25.9442 41.2162C25.9574 41.715 26.0157 42.3569 25.5976 42.7182C25.2483 43.0203 24.727 42.9501 24.2798 42.8423C20.6121 41.9497 17.3255 39.5604 15.2827 36.3324C11.8479 30.9039 12.5147 23.4232 16.4047 18.499L16.4073 18.4936Z" fill="white"/>
<path d="M21.9139 12.5385C21.7525 12.6033 21.5911 12.6734 21.4323 12.7435C21.1253 12.881 19.31 14.0136 19.2015 13.2532C19.138 12.8136 19.1671 12.3039 19.183 11.8859C19.183 9.97126 19.1513 8.02153 18.7226 6.15C18.5823 5.54324 18.413 4.94187 18.2145 4.35129C18.0716 3.91981 17.7435 3.38586 17.9023 2.91933C18.0478 2.48515 18.8999 2.66044 19.2412 2.65775C19.8869 2.65235 20.5326 2.64696 21.1782 2.64157C22.4696 2.63347 23.7636 2.63078 25.0549 2.63078C27.6403 2.63078 30.223 2.64426 32.8083 2.65235C33.4989 2.65505 34.1896 2.66044 34.8776 2.65775C35.2269 2.65775 35.5762 2.65505 35.9282 2.64696C36.1981 2.64157 36.5447 2.57684 36.7882 2.72786C37.066 2.89506 36.9681 3.26451 36.8781 3.5153C36.7538 3.86318 36.6056 4.19757 36.4812 4.54545C36.169 5.42728 35.9176 6.33338 35.7297 7.25027C35.4995 8.36132 35.3433 9.53979 35.3222 10.694C35.3116 11.2252 35.3301 11.7538 35.3883 12.2824C35.4254 12.6087 35.563 13.1561 35.3619 13.45C35.1025 13.8276 33.4116 12.5763 33.0835 12.4549C32.1944 12.1286 31.2761 11.8832 30.3447 11.7187C29.1433 11.5057 27.9208 11.4329 26.7035 11.4949C25.0655 11.5785 23.4381 11.9156 21.9139 12.5331V12.5385Z" fill="#FEFEFE"/>
<path d="M35.9444 50.9024C36.0873 51.6521 36.2566 52.3937 36.4498 53.1245C36.5027 53.3241 36.5451 53.5722 36.3942 53.7097C36.2963 53.7987 36.1481 53.8041 36.0158 53.8041C30.2842 53.7987 24.5525 53.7933 18.8208 53.7879C18.6462 53.7879 18.4451 53.7771 18.3339 53.6396C18.2069 53.4886 18.2519 53.2593 18.3022 53.0679C19.0405 50.1932 19.4056 47.2214 19.3871 44.2523C19.3871 44.0419 19.395 43.8046 19.5512 43.6698C19.7311 43.5134 20.0037 43.5781 20.2312 43.6509L25.0288 45.2069C25.2246 45.2716 25.4257 45.3364 25.5792 45.4766C25.8491 45.7193 25.7592 46.1157 25.7565 46.442C25.7565 46.9436 25.7512 47.4452 25.7486 47.9468C25.7433 48.95 25.738 49.9532 25.7327 50.959C25.7327 51.1154 25.738 51.3474 25.8862 51.4417C26.0502 51.5496 26.2858 51.528 26.471 51.5146C26.7118 51.4957 26.9526 51.4957 27.196 51.4957L28.932 51.4876C29.0299 51.4876 29.1384 51.4849 29.2177 51.4229C29.3315 51.3339 29.3421 51.1667 29.3421 51.0211L29.3289 46.0294C29.3289 45.8137 29.3368 45.5737 29.4903 45.4227C29.575 45.3391 29.6914 45.2986 29.8025 45.2582L34.6689 43.5889C34.7668 43.5565 34.8674 43.5215 34.9679 43.5349C35.304 43.5781 35.3807 44.0338 35.3754 44.379C35.3437 46.5364 35.5369 48.7504 35.947 50.9024H35.9444Z" fill="#FEFEFE"/>
<path d="M4.76435 37.2868C4.56589 37.3192 4.36477 37.33 4.16631 37.303C3.35657 37.1871 3.34599 36.6073 3.34069 35.9412C3.33011 34.7816 3.32217 33.6193 3.31688 32.4597C3.30629 30.4884 3.31159 28.5171 3.31423 26.5485C3.31688 24.5799 3.32217 22.5951 3.32482 20.6184C3.32482 20.2462 3.31423 19.8741 3.32746 19.5019C3.35128 19.0543 3.49153 18.9518 3.91492 19.0812C5.70111 19.626 7.58255 19.8471 9.44548 19.7689C10.459 19.7258 11.4751 19.7473 12.4886 19.7473C12.6977 19.7473 12.9464 19.7554 13.002 19.9981C13.1237 20.5213 12.6103 21.0121 12.3775 21.4274C11.8403 22.3874 11.5598 23.4553 11.3507 24.5313C11.0306 26.1736 10.8982 27.8564 11.0147 29.5257C11.1417 31.319 11.5598 33.1042 12.306 34.7357C12.4357 35.0162 12.5812 35.2913 12.7241 35.5663C12.8564 35.8171 13.0099 36.0652 13.0258 36.3592C13.0417 36.6828 12.7215 36.761 12.4674 36.7745C12.0149 36.7987 11.5677 36.7097 11.1152 36.6855C10.6416 36.6612 10.1679 36.6477 9.69422 36.6531C8.75217 36.6585 7.81013 36.7232 6.87602 36.8607C6.46321 36.9228 6.0504 36.9956 5.64289 37.0873C5.35445 37.152 5.06073 37.241 4.76435 37.2895V37.2868Z" fill="white"/>
<path d="M43.483 33.1557C43.5121 33.0559 43.5412 32.9561 43.5677 32.8564C43.8799 31.7156 44.0996 30.5426 44.1922 29.3614C44.2716 28.369 44.2557 27.3658 44.1207 26.3788C43.8641 24.51 43.229 22.7302 42.5066 21.0016C42.3928 20.7292 42.2869 20.446 42.1546 20.1818C42.1255 20.1143 42.0911 20.055 42.1017 19.9795C42.152 19.6181 42.7421 19.6208 43.0014 19.6316C43.5227 19.6532 44.0387 19.699 44.5627 19.7044C46.1107 19.7179 47.6455 19.5372 49.1697 19.2945C49.6063 19.2244 50.0694 19.1435 50.5113 19.0464C50.9109 18.9574 51.4057 18.7201 51.8159 18.8145C52.3901 18.9467 52.1202 20.0253 52.0964 20.4164C51.9905 22.145 52.0223 23.8709 52.0223 25.6022C52.0223 25.7397 52.0249 25.8772 52.0276 26.0148C52.0514 27.8566 52.0673 29.7012 52.0832 31.5458C52.099 33.3903 52.1943 35.2295 52.0964 37.0579C52.0832 37.2979 52.1176 37.4974 51.9085 37.6269C51.6809 37.7698 51.3422 37.6323 51.1305 37.519C50.813 37.3518 50.4822 37.2224 50.1356 37.1172C49.3999 36.8934 48.6378 36.7747 47.8731 36.7181C46.6532 36.6291 45.4042 36.6749 44.1843 36.7262C43.573 36.7504 42.7712 36.977 42.197 36.6965C41.8212 36.5131 42.0011 36.1383 42.197 35.8794C42.7976 35.065 43.1972 34.1292 43.4857 33.1584L43.483 33.1557Z" fill="white"/>
<path d="M27.0377 28.6686C26.7863 28.55 26.3444 28.6551 26.1301 28.6551C25.6591 28.6551 25.188 28.6605 24.717 28.6605C24.4233 28.6605 24.1269 28.6902 23.8332 28.6794C23.6982 28.674 23.5289 28.6794 23.3992 28.6282C23.2881 28.585 23.2669 28.496 23.2351 28.3828C23.1214 27.9729 23.386 27.8084 23.7617 27.803C24.6615 27.7949 25.5612 27.803 26.4609 27.8003C26.9398 27.8003 27.3103 27.6034 27.305 27.0506C27.2838 26.7782 27.3341 26.4951 27.2812 26.2227C27.2494 26.0663 27.2071 25.9288 26.9928 25.9315C26.7731 25.9368 26.5561 25.9395 26.3391 25.9288C26.1989 25.9207 26.0401 25.8991 25.974 25.74C25.966 25.4245 25.8708 25.0307 26.0586 24.8231C26.1724 24.6991 26.3656 24.7179 26.5138 24.7314C26.8128 24.7611 27.2336 24.8285 27.2177 24.3701C27.2018 23.9197 27.4082 23.8253 28.0248 23.9521C28.1333 24.0491 28.128 24.2244 28.1306 24.3512C28.1386 24.9256 28.6969 24.7044 29.0753 24.7503C29.2844 25.0955 29.1917 25.4083 29.1759 25.7643C29.0224 25.9962 28.7578 25.9234 28.5461 25.9342C28.3344 25.9449 28.1835 25.9422 28.1491 26.1822C28.1015 26.5059 28.1306 26.8295 28.1333 27.1531C28.1333 27.3418 28.0856 27.6385 28.2841 27.749C28.3555 27.7895 28.4376 27.7976 28.5196 27.8003C29.4669 27.8138 30.4169 27.7949 31.3643 27.8003C31.4966 27.8003 31.6368 27.803 31.7559 27.8623C32.0443 28.0052 31.9464 28.3396 31.8512 28.5769C31.74 28.6605 31.6077 28.6524 31.4807 28.6524C30.8456 28.6524 30.2079 28.6524 29.5728 28.6524C29.3981 28.6524 29.2261 28.6524 29.0515 28.6524C28.8927 28.6524 28.7181 28.6417 28.5593 28.6524C28.255 28.6686 28.1544 28.8817 28.1544 29.1621C28.1465 30.1896 28.1544 31.2143 28.1544 32.2418C28.1544 33.5066 28.1756 34.7767 28.173 36.0415C28.173 36.2302 28.1835 36.4217 28.0645 36.5916C27.866 36.6914 27.5537 36.6833 27.305 36.6159C27.2044 36.4217 27.2362 36.1332 27.2336 35.8716C27.2203 33.849 27.2256 31.8427 27.2177 29.8228C27.2177 29.5316 27.2283 29.2403 27.2203 28.9491C27.2203 28.8925 27.2177 28.8358 27.1886 28.7873C27.1568 28.7307 27.1092 28.6929 27.0483 28.6659L27.0377 28.6686Z" fill="#FBFBFB"/>
<path d="M26.5739 21.8701C26.9047 21.8701 27.2354 21.8701 27.5689 21.8701C27.5874 22.0751 27.5133 22.1775 27.2963 22.156C27.1481 22.1425 26.9973 22.1398 26.8491 22.156C26.6295 22.1775 26.558 22.0724 26.5765 21.8701H26.5739Z" fill="#0F57A2"/>
<path d="M23.2291 28.6307C23.425 28.6199 23.634 28.5929 23.5917 28.9057C23.3826 28.9327 23.2 28.9246 23.2291 28.6307Z" fill="#0F57A2"/>
<path d="M28.0137 18.8888C28.1302 18.9104 28.0455 19.2879 28.0534 19.5009C28.0693 19.8839 28.3154 19.8542 28.6144 19.8677C28.9743 19.8866 29.1251 20.0969 29.0113 20.4529C28.9399 20.6767 28.5244 20.5877 28.3551 20.5958C28.0878 20.6066 28.064 20.6767 28.0428 20.9518C28.0428 20.9626 28.0402 20.976 28.0375 20.9868C28.0614 21.6179 28.3524 21.7176 27.2384 21.6152C27.204 21.6206 27.2649 20.8008 27.1987 20.7279C27.0029 20.5176 26.8944 20.5661 26.688 20.5958C26.4181 20.6363 26.3202 20.5392 26.3228 20.2452C26.3255 19.9621 26.3784 19.803 26.688 19.8623C26.9711 19.9162 27.1325 19.9001 27.2728 19.7625C27.3019 19.5279 27.3045 19.5063 27.3257 19.2906C27.3654 18.8915 27.3204 18.8618 27.7623 18.8618C27.8682 18.8618 27.8946 18.8618 28.0164 18.8888H28.0137Z" fill="#FBFBFA"/>
<path d="M30.3583 9.74226C30.3107 9.74226 30.2631 9.74226 30.2154 9.74226C30.1916 9.74226 30.1625 9.73957 30.1493 9.71799C30.144 9.70721 30.144 9.69642 30.144 9.68563C30.144 8.79032 30.1413 7.89231 30.1334 6.997C30.1308 6.43069 30.1043 5.86437 30.1069 5.29806C30.1069 4.94749 29.9588 4.12768 30.4986 4.21128C30.7314 4.24634 30.8188 4.13578 30.7897 3.90386C30.7658 3.7016 30.832 3.48317 30.4827 3.48586C28.4213 3.50474 26.3573 3.49935 24.2959 3.50474C24.0445 3.49126 23.9598 3.6234 23.9334 3.8661C23.8698 4.45669 24.7775 4.00094 24.923 4.31646C24.9733 4.42702 24.9336 4.6077 24.931 4.72636C24.9072 6.24731 24.9204 7.76826 24.9389 9.28921C24.9389 9.43214 24.9177 9.62091 24.796 9.7153C24.6478 9.82856 24.4361 9.66406 24.3144 9.7908C24.243 9.86362 24.2747 10.0092 24.2747 10.1009C24.2774 10.2654 24.2059 10.4731 24.5049 10.4677C25.3464 10.4542 26.1906 10.4569 27.0321 10.4515C27.4078 10.5216 27.3681 10.2492 27.3893 10.0146C27.421 9.64788 26.9289 9.75035 26.6933 9.73957C26.6854 9.75035 26.6748 9.76114 26.6589 9.77193C26.6695 9.76114 26.6801 9.75035 26.6933 9.73957C26.688 7.9867 26.688 6.23383 26.6775 4.47826C26.6775 4.2814 26.7304 4.1978 26.9341 4.20589C27.04 4.20859 28.3737 4.22746 28.3737 4.22477C28.3737 5.92101 28.3684 7.61724 28.3684 9.31348C28.3684 9.65057 28.3843 9.73687 28.0323 9.75575C27.7995 9.76653 27.683 9.82856 27.6724 10.074C27.6592 10.3355 27.7465 10.5243 28.0323 10.4542C28.8632 10.4569 29.6941 10.4623 30.525 10.4623C30.6229 10.4623 30.7314 10.4973 30.7764 10.3436C30.877 9.99845 30.7076 9.75035 30.353 9.74766L30.3583 9.74226ZM30.0699 9.74496H30.0646V9.73957L30.0699 9.74496Z" fill="#1153A0"/>
<path d="M10.004 29.6144C9.96427 29.4957 9.90605 29.3825 9.82931 29.28C9.7023 29.1155 9.6282 28.9591 9.525 28.7811C9.43238 28.622 9.29743 28.5492 9.11484 28.5492C8.77348 28.5492 8.41624 28.6193 8.06694 28.6031C7.887 28.595 7.70706 28.5627 7.54035 28.4898C7.37364 28.417 7.23339 28.2795 7.05345 28.2283C7.03757 28.2229 6.89468 28.177 6.89468 28.2202C6.89468 27.4112 6.89468 26.6021 6.89468 25.7958C6.89468 25.6071 7.79703 25.7958 7.88436 25.812C7.8182 25.8012 8.01931 26.2624 8.03254 26.2866C8.1331 26.4808 8.21248 26.6561 8.26541 26.8691C8.30246 27.0174 8.36332 27.066 8.46917 27.155C8.56443 27.2359 8.56443 27.3491 8.64382 27.4408C8.70997 27.5163 8.84493 27.5379 8.90314 27.4543C8.9349 27.4085 8.9349 27.3437 8.94548 27.2871C8.99841 27.0417 9.23921 26.9419 9.25509 26.6723C9.26303 26.5428 9.2498 26.4134 9.28949 26.2893C9.35035 26.0952 9.52235 26.0196 9.63349 25.8659C9.75522 25.6933 9.73934 25.4345 9.61497 25.2673C9.40592 24.9868 8.98518 25.0677 8.68615 25.0677C7.92934 25.0677 7.16988 25.0623 6.41307 25.0596C6.03466 25.0596 5.65626 25.0569 5.2752 25.0542C5.07674 25.0542 4.66393 24.949 4.52897 25.1567C4.44694 25.2673 4.45224 25.5154 4.48134 25.6448C4.49457 25.6987 4.52368 25.7419 4.57131 25.7662C4.7195 25.8498 4.96031 25.7904 5.12172 25.785C5.22757 25.7823 5.19582 30.1402 5.19317 30.5394C5.19317 30.6661 5.20905 30.8117 5.18788 30.9358C5.12437 31.3106 4.82006 31.2081 4.57661 31.4212C4.45753 31.5264 4.44694 31.7097 4.47076 31.8688C4.4787 31.9201 4.49193 31.9767 4.52897 32.0118C4.57131 32.0522 4.63747 32.0522 4.69569 32.0522C5.50807 32.0522 6.32045 32.0522 7.13548 32.0468C7.543 32.0468 7.94787 32.0441 8.35538 32.0414C8.67822 32.0414 9.11219 32.1169 9.41651 31.9929C9.71553 31.8742 9.95898 31.4913 10.0278 31.1839C10.1363 30.6958 10.1707 30.0917 10.0066 29.6144H10.004ZM7.84466 30.9142C7.84466 31.1272 7.74675 31.2054 7.54564 31.2135C7.34982 31.2216 7.14342 31.1677 6.96083 31.2702C7.00053 30.9034 6.99788 30.5313 6.99259 30.1618C6.99259 29.9919 6.98729 29.822 6.99259 29.6521C6.99523 29.5038 6.96877 29.3258 7.02963 29.1883C7.06933 29.0966 7.14871 29.0211 7.2281 28.9645C7.1937 29.0103 7.18047 29.0723 7.19634 29.129C7.23075 29.2422 7.26515 29.3312 7.36041 29.3986C7.54829 29.5335 7.85789 29.7573 7.84996 30.0189C7.84202 30.3155 7.84731 30.6149 7.84996 30.9115L7.84466 30.9142Z" fill="#0F57A2"/>
<path d="M51.2078 31.3719C51.1469 31.2398 51.0649 31.113 50.9776 31.0051C50.8558 30.8568 50.7209 30.8164 50.5595 30.7328C50.4404 30.6681 50.4457 30.4982 50.4563 30.3795C50.5965 28.5997 50.5145 26.809 50.5039 25.0265C50.5039 24.9995 50.5039 24.9699 50.5145 24.9456C50.57 24.8269 50.8902 24.8917 50.9908 24.8944C51.1549 24.8998 51.2845 24.8593 51.2845 24.6705C51.2845 24.4305 51.3083 24.1689 51.012 24.1663C50.1731 24.1663 49.3343 24.1663 48.4954 24.1663C48.2123 24.1663 48.1488 24.3631 48.1594 24.6247C48.1805 25.0993 48.8527 24.622 48.85 25.0993C48.8474 25.8679 48.8474 26.6365 48.8447 27.405C48.8421 28.1736 48.805 28.9421 48.858 29.7053C48.8844 30.0829 48.8553 30.4901 48.3896 30.4982C48.1752 30.5009 47.9582 30.482 47.7439 30.4577C47.5878 30.4388 47.3364 30.4631 47.2147 30.3444C47.1326 30.2635 47.1273 30.1314 47.1273 30.0154C47.1273 28.3084 47.1273 26.6014 47.13 24.8944C47.5825 24.8836 47.6222 24.8971 47.7518 24.8512C48.0403 24.7487 48.0085 24.1582 47.474 24.1636C46.6669 24.1716 45.8598 24.1797 45.0527 24.1582C44.8199 24.1528 44.7431 24.2552 44.7325 24.4764C44.7193 24.7326 44.7378 24.9186 45.0448 24.8782C45.1718 24.862 45.3015 24.8782 45.4258 24.8836C45.4655 24.889 45.4285 26.2913 45.4285 26.391C45.4232 27.076 45.4285 27.7772 45.4338 28.4702C45.4338 28.7642 45.4338 29.0581 45.4444 29.352C45.4549 29.6406 45.5476 29.9318 45.4841 30.2177C45.4708 30.2743 45.4497 30.331 45.41 30.3741C45.3517 30.4334 45.2671 30.4469 45.185 30.4469C45.0501 30.4469 44.8992 30.4065 44.7855 30.5062C44.6796 30.5979 44.6875 31.0564 44.8225 31.1184C44.9654 31.1858 45.1427 31.1427 45.2935 31.1427C45.4788 31.14 45.6666 31.113 45.8519 31.1427C45.971 31.1616 46.1218 31.2344 46.1271 31.3773C46.1324 31.558 45.9207 31.5148 45.8148 31.6038C45.754 31.6551 45.7328 31.744 45.6746 31.798C45.619 31.8465 45.5423 31.86 45.4682 31.8573C45.3941 31.8546 45.3226 31.8438 45.2485 31.8546C44.7881 31.9193 45.0368 32.8335 45.3941 32.8982C45.529 32.9225 45.6561 32.8686 45.791 32.8632C46.1906 32.8443 46.5743 32.9737 46.9659 32.9872C47.3681 33.0007 47.7757 32.8659 48.1726 32.998C48.3631 33.0627 48.5404 33.1679 48.7336 33.2245C48.9532 33.2893 49.1781 33.265 49.4057 33.2569C49.7047 33.2461 50.0091 33.2084 50.2948 33.1086C50.4668 33.0466 50.6362 32.9468 50.7447 32.7904C50.8294 32.669 50.8664 32.5315 50.9458 32.4074C51.0358 32.2672 51.1575 32.1486 51.2342 32.0002C51.3454 31.7872 51.3057 31.5849 51.2104 31.3746L51.2078 31.3719ZM50.2737 31.469C50.3345 31.7387 50.2816 32.1189 50.1414 32.2322C49.8556 32.4668 49.2628 32.0164 48.9929 31.9139C48.7468 31.8196 48.4769 31.8034 48.2361 31.6955C48.117 31.6416 48.0191 31.5526 47.8947 31.5094C47.7704 31.4663 47.6301 31.469 47.4978 31.4636L46.5769 31.4204C46.6299 31.4204 46.7913 31.2991 46.8574 31.2802C46.9739 31.2451 47.0929 31.2425 47.212 31.2398C48.1038 31.2155 48.985 31.2613 49.8794 31.1804C49.9667 31.1723 50.062 31.1669 50.1361 31.2155C50.2049 31.2613 50.2499 31.3557 50.2763 31.469H50.2737ZM50.9008 32.1971C50.9008 32.1971 50.9008 32.189 50.9008 32.1782C50.9008 32.1836 50.9352 32.2052 50.9008 32.1971Z" fill="#0F57A2"/>
</svg>
