<svg width="46" height="54" viewBox="0 0 46 54" fill="none" xmlns="http://www.w3.org/2000/svg">
<g clip-path="url(#clip0_2051_200)">
<path d="M45.2524 44.2768V0.361607L0.877441 0V44.2768C1.50244 48.5758 5.0441 49.2187 6.50244 49.2187H17.7524C21.5024 49.2187 22.1274 52.8616 22.7524 53.7187C23.7524 52.1758 24.6274 49.2187 27.7524 49.2187H39.6274C44.1274 48.7044 45.2524 45.3482 45.2524 44.2768Z" fill="#253582"/>
<path fill-rule="evenodd" clip-rule="evenodd" d="M24.6517 10.8367C25.6314 10.8367 26.4258 11.659 26.4258 12.6734V34.7142C26.4258 35.7287 25.6314 36.551 24.6517 36.551C23.6718 36.551 22.8774 35.7287 22.8774 34.7142V12.6734C22.8774 11.659 23.6718 10.8367 24.6517 10.8367Z" fill="white"/>
<path fill-rule="evenodd" clip-rule="evenodd" d="M39.9095 21.1226C40.8893 21.1226 41.6836 21.9449 41.6836 22.9592V34.347C41.6836 35.3615 40.8893 36.1838 39.9095 36.1838C38.9296 36.1838 38.1353 35.3615 38.1353 34.347V22.9592C38.1353 21.9449 38.9296 21.1226 39.9095 21.1226Z" fill="white"/>
<path fill-rule="evenodd" clip-rule="evenodd" d="M32.1032 21.1226C33.0831 21.1226 33.8775 21.9449 33.8775 22.9592V34.347C33.8775 35.3615 33.0831 36.1838 32.1032 36.1838C31.1235 36.1838 30.3291 35.3615 30.3291 34.347V22.9592C30.3291 21.9449 31.1235 21.1226 32.1032 21.1226Z" fill="white"/>
<path fill-rule="evenodd" clip-rule="evenodd" d="M17.1999 21.1226C18.1798 21.1226 18.9742 21.9449 18.9742 22.9592V34.347C18.9742 35.3615 18.1798 36.1838 17.1999 36.1838C16.22 36.1838 15.4258 35.3615 15.4258 34.347V22.9592C15.4258 21.9449 16.22 21.1226 17.1999 21.1226Z" fill="white"/>
<path fill-rule="evenodd" clip-rule="evenodd" d="M24.4607 11.4376C24.7282 11.7342 24.7127 12.1991 24.4261 12.476L3.1358 33.0474C2.84927 33.3243 2.40019 33.3083 2.13277 33.0116C1.86533 32.715 1.88081 32.25 2.16735 31.9732L23.5871 11.2042C23.8736 10.9274 24.1933 11.1409 24.4607 11.4376Z" fill="white"/>
<path fill-rule="evenodd" clip-rule="evenodd" d="M39.7268 21.7322C39.9894 22.0335 39.9664 22.498 39.6754 22.7698L25.716 36.1837C25.4252 36.4555 24.3873 36.6097 24.1247 36.3085C23.8622 36.0072 23.8852 35.5426 24.176 35.2708L38.8452 21.4897C39.136 21.2179 39.4643 21.431 39.7268 21.7322Z" fill="white"/>
<path fill-rule="evenodd" clip-rule="evenodd" d="M31.921 21.7329C32.1832 22.0345 32.1596 22.499 31.8683 22.7706L18.2645 35.8162C17.9732 36.0878 16.9347 36.242 16.6725 35.9404C16.4102 35.6388 16.4338 35.1743 16.7252 34.9028L31.0387 21.4898C31.33 21.2182 31.6588 21.4314 31.921 21.7329Z" fill="white"/>
<path fill-rule="evenodd" clip-rule="evenodd" d="M16.9923 21.7051C17.2694 21.992 17.2694 22.4571 16.9923 22.7441L14.8633 24.9482C14.5862 25.2351 14.1368 25.2351 13.8597 24.9482C13.5826 24.6612 13.5826 24.1961 13.8597 23.9091L15.7808 21.8572C16.0579 21.5704 16.7152 21.4182 16.9923 21.7051Z" fill="white"/>
<path fill-rule="evenodd" clip-rule="evenodd" d="M44.012 32.0511C44.2569 32.3681 44.2073 32.8304 43.9011 33.0838L40.974 35.8162C40.6679 36.0698 39.6001 36.2248 39.3553 35.9079C39.1104 35.591 39.16 35.1286 39.4661 34.8752L43.0145 31.9364C43.3205 31.6829 43.7671 31.7343 44.012 32.0511Z" fill="white"/>
<path fill-rule="evenodd" clip-rule="evenodd" d="M36.2059 32.0511C36.4506 32.3681 36.4011 32.8304 36.095 33.0838L33.1677 35.8162C32.8617 36.0698 31.7939 36.2248 31.5491 35.9079C31.3042 35.591 31.3539 35.1286 31.66 34.8752L35.2084 31.9364C35.5144 31.6829 35.961 31.7343 36.2059 32.0511Z" fill="white"/>
<path d="M31.7485 10.8367C32.5765 11.9387 33.7357 14.804 31.7485 17.4489" stroke="white" stroke-linecap="round"/>
<path d="M34.9419 10.8367C35.7699 11.9387 36.929 14.804 34.9419 17.4489" stroke="white" stroke-linecap="round"/>
<path d="M37.7808 10.8367C38.6088 11.9387 39.7679 14.804 37.7808 17.4489" stroke="white" stroke-linecap="round"/>
<path d="M3.71631 45.7347C9.9851 39.3673 24.7228 30.453 42.0389 45.7347" stroke="#5D7DC4" stroke-linecap="round"/>
<path d="M7.61914 47.2041C12.9417 40.5918 24.4385 29.2775 37.7805 47.2041" stroke="#5D7DC4" stroke-linecap="round"/>
<path d="M15.0708 48.6734C19.3289 36.551 24.2504 31.7651 31.0386 48.6734" stroke="#5D7DC4" stroke-linecap="round"/>
<path d="M22.8774 49.7756V37.6531" stroke="#5D7DC4" stroke-linecap="round"/>
<path d="M5.49023 44.2654C11.5225 47.3265 26.0708 51.6123 40.2644 44.2654" stroke="#5D7DC4" stroke-linecap="round"/>
<path d="M12.2324 39.8572C15.6626 40.8368 24.0841 42.2082 33.1679 39.8572" stroke="#5D7DC4" stroke-linecap="round"/>
<path d="M9.34469 8.73209L6.35547 4.87471L9.14769 3.79102L9.34469 8.73209Z" fill="#5F83CF"/>
<path d="M8.57125 9.72369L3.79688 9.56339L4.81896 6.66333L8.57125 9.72369Z" fill="#5F83CF"/>
<path d="M11.0059 8.73209L13.9951 4.87471L11.2029 3.79102L11.0059 8.73209Z" fill="#5F83CF"/>
<path d="M11.7788 9.72369L16.5532 9.56339L15.5311 6.66333L11.7788 9.72369Z" fill="#5F83CF"/>
<path d="M9.34469 11.9128L6.35547 15.7703L9.14769 16.854L9.34469 11.9128Z" fill="#5F83CF"/>
<path d="M8.57125 10.9211L3.79688 11.0815L4.81896 13.9816L8.57125 10.9211Z" fill="#5F83CF"/>
<path d="M11.0059 11.9128L13.9951 15.7703L11.2029 16.854L11.0059 11.9128Z" fill="#5F83CF"/>
<path d="M11.7788 10.9211L16.5532 11.0815L15.5311 13.9816L11.7788 10.9211Z" fill="#5F83CF"/>
<path d="M10.1032 12.6735C11.279 12.6735 12.2322 11.6867 12.2322 10.4695C12.2322 9.25218 11.279 8.26538 10.1032 8.26538C8.92732 8.26538 7.97412 9.25218 7.97412 10.4695C7.97412 11.6867 8.92732 12.6735 10.1032 12.6735Z" fill="#5F83CF"/>
<path d="M2.12744 1.28564C2.35968 2.08922 3.24219 3.69636 4.91433 3.69636C6.58645 3.69636 14.9007 3.69636 18.8487 3.69636C20.2422 3.69636 22.2627 4.1785 23.3774 7.71422" stroke="#5E80C9" stroke-linecap="round"/>
<path d="M43.3774 1.28564C43.1552 2.08922 42.3108 3.69636 40.7108 3.69636C39.1108 3.69636 31.1552 3.69636 27.3774 3.69636C26.0441 3.69636 24.4441 4.1785 23.3774 7.71422" stroke="#5E80C9" stroke-linecap="round"/>
</g>
<defs>
<clipPath id="clip0_2051_200">
<rect width="45" height="54" fill="white" transform="translate(0.877441)"/>
</clipPath>
</defs>
</svg>
